<?xml version="1.0" encoding="UTF-8"?>
<!DOCTYPE svg PUBLIC "-//W3C//DTD SVG 1.1//EN" "http://www.w3.org/Graphics/SVG/1.1/DTD/svg11.dtd">
<!-- Creator: CorelDRAW X7 -->
<svg xmlns="http://www.w3.org/2000/svg" xml:space="preserve" width="175mm" height="55mm" version="1.1" style="shape-rendering:geometricPrecision; text-rendering:geometricPrecision; image-rendering:optimizeQuality; fill-rule:evenodd; clip-rule:evenodd"
viewBox="0 0 17500 5500"
 xmlns:xlink="http://www.w3.org/1999/xlink">
 <defs>
  <style type="text/css">
   <![CDATA[
    .fil1 {fill:none}
    .fil0 {fill:#2B2A29;fill-rule:nonzero}
   ]]>
  </style>
 </defs>
 <g id="Layer_x0020_1">
  <metadata id="CorelCorpID_0Corel-Layer"/>
  <g id="_663638384">
   <path class="fil0" d="M2188 3517c-264,0 -472,-90 -626,-272 -154,-182 -230,-433 -230,-753 0,-320 76,-571 230,-754 154,-184 362,-275 626,-275 381,0 628,169 741,507l-380 130c-64,-169 -179,-253 -346,-253 -148,0 -263,57 -343,171 -81,114 -121,272 -121,474 0,200 39,357 119,471 79,113 189,170 330,170 189,0 312,-96 369,-288l380 119c-105,369 -355,553 -749,553zm1097 -46l0 -2584 399 -188 0 2772 -399 0zm1964 0l0 -169c-138,144 -318,215 -538,215 -207,0 -375,-57 -505,-170 -129,-114 -194,-276 -194,-486 0,-213 73,-374 219,-484 146,-110 324,-165 534,-165 192,0 353,38 484,115l0 -108c0,-145 -33,-249 -100,-311 -67,-61 -173,-92 -319,-92 -215,0 -402,59 -560,177l-119 -327c197,-135 441,-203 733,-203 97,0 184,8 261,25 77,17 155,49 234,96 80,47 142,123 187,228 44,105 67,235 67,388l0 1271 -384 0zm-465 -307c185,0 339,-70 465,-211l0 -300c-120,-64 -260,-96 -419,-96 -128,0 -232,25 -313,75 -80,50 -121,126 -121,229 0,94 34,169 100,222 67,54 163,81 288,81zm1435 1052l303 -779 -733 -1928 395 0 484 1283c23,59 41,116 54,172 12,-56 30,-113 53,-172l488 -1283 399 0 -1036 2707 -407 0zm2202 -745l-718 -1962 399 0 453 1286c29,85 47,143 54,173 8,-30 26,-88 54,-173l449 -1286 400 0 -718 1962 -373 0zm2118 46c-274,0 -491,-91 -651,-274 -160,-183 -240,-435 -240,-755 0,-320 81,-571 242,-752 161,-182 378,-273 649,-273 246,0 448,78 607,234 158,156 238,384 238,684 0,110 -5,196 -16,257l-1321 0c3,156 54,283 152,380 99,97 213,146 344,146 169,0 305,-66 407,-200l261 269c-159,190 -383,284 -672,284zm-492 -1202l937 0c-2,-169 -47,-294 -134,-376 -87,-82 -191,-123 -311,-123 -136,0 -249,41 -340,121 -91,81 -141,207 -152,378zm2364 1202c-248,0 -446,-91 -593,-274 -147,-183 -221,-435 -221,-755 0,-317 75,-567 225,-750 150,-184 346,-275 589,-275 192,0 347,61 465,184l0 -764 399 -184 0 2772 -399 0 0 -138c-110,123 -265,184 -465,184zm58 -376c179,0 315,-74 407,-223l0 -864c-36,-59 -89,-109 -160,-151 -70,-43 -152,-64 -247,-64 -151,0 -268,57 -350,169 -82,113 -123,273 -123,480 0,195 43,352 127,473 85,120 200,180 346,180zm2352 330l0 -169c-138,144 -317,215 -538,215 -207,0 -375,-57 -505,-170 -129,-114 -193,-276 -193,-486 0,-213 72,-374 218,-484 146,-110 324,-165 534,-165 192,0 353,38 484,115l0 -108c0,-145 -33,-249 -100,-311 -66,-61 -173,-92 -319,-92 -215,0 -401,59 -560,177l-119 -327c197,-135 441,-203 733,-203 97,0 185,8 261,25 77,17 155,49 235,96 79,47 141,123 186,228 45,105 67,235 67,388l0 1271 -384 0zm-465 -307c185,0 340,-70 465,-211l0 -300c-120,-64 -260,-96 -419,-96 -128,0 -232,25 -313,75 -80,50 -120,126 -120,229 0,94 33,169 99,222 67,54 163,81 288,81z"/>
   <path class="fil0" d="M7699 4575l0 -52c-45,43 -98,65 -158,65 -59,0 -106,-16 -142,-49 -35,-32 -53,-79 -53,-139 0,-61 20,-107 60,-138 40,-31 90,-47 149,-47 54,0 102,12 144,36l0 -39c0,-47 -10,-80 -31,-98 -21,-19 -51,-28 -90,-28 -56,0 -110,19 -163,56l-27 -80c60,-39 127,-59 202,-59 133,0 199,67 199,201l0 371 -90 0zm-144 -71c55,0 103,-25 144,-74l0 -96c-40,-25 -83,-37 -131,-37 -38,0 -70,9 -95,26 -25,18 -37,43 -37,77 0,31 10,56 31,75 21,19 50,29 88,29zm701 71l0 -338c0,-50 -10,-87 -32,-111 -21,-24 -51,-36 -88,-36 -86,0 -129,48 -129,145l0 340 -95 0 0 -559 95 0 0 57c34,-47 83,-70 144,-70 66,0 116,20 150,59 34,40 51,104 51,191l0 322 -96 0zm428 13c-71,0 -127,-26 -169,-77 -42,-52 -62,-123 -62,-215 0,-92 21,-164 63,-215 41,-52 99,-78 173,-78 99,0 164,43 196,130l-90 33c-19,-50 -54,-75 -105,-75 -47,0 -82,18 -105,54 -23,36 -35,86 -35,151 0,64 12,114 35,149 23,36 57,53 102,53 58,0 96,-27 113,-83l89 30c-14,46 -38,81 -74,106 -35,25 -79,37 -131,37zm397 -691c-12,12 -26,17 -43,17 -17,0 -31,-6 -42,-17 -11,-12 -17,-26 -17,-42 0,-17 6,-31 18,-43 11,-12 25,-18 41,-18 17,0 31,6 43,18 11,12 17,26 17,43 0,17 -6,31 -17,42zm-90 678l0 -559 95 0 0 559 -95 0zm450 13c-76,0 -136,-27 -181,-82 -45,-54 -67,-124 -67,-211 0,-91 22,-163 68,-214 45,-52 105,-78 180,-78 67,0 122,22 166,67 43,45 65,111 65,199 0,20 -1,41 -4,63l-378 0c4,51 20,92 48,123 28,31 63,47 105,47 47,0 87,-17 120,-51l58 65c-48,48 -108,72 -180,72zm-152 -337l286 0c0,-57 -14,-99 -41,-125 -26,-26 -57,-39 -93,-39 -43,0 -78,14 -106,41 -28,27 -43,68 -46,123zm827 324l0 -338c0,-50 -11,-87 -32,-111 -22,-24 -51,-36 -88,-36 -86,0 -129,48 -129,145l0 340 -95 0 0 -559 95 0 0 57c34,-47 82,-70 144,-70 66,0 116,20 149,59 34,40 51,104 51,191l0 322 -95 0zm380 13c-79,0 -118,-45 -118,-133l0 -356 -91 0 0 -83 91 0 0 -185 95 -46 0 231 138 0 0 83 -138 0 0 324c0,25 4,44 12,57 8,13 23,19 46,19 25,0 53,-9 83,-29l-11 93c-32,17 -68,25 -107,25zm645 213l-46 -74c81,-5 137,-19 167,-42 31,-24 47,-56 47,-97l0 -68c-33,45 -81,68 -144,68 -66,0 -121,-26 -164,-77 -43,-51 -65,-123 -65,-216 0,-91 21,-162 64,-214 43,-52 99,-78 168,-78 58,0 105,20 141,59l0 -46 95 0 0 536c0,85 -23,147 -68,185 -46,38 -111,59 -195,64zm43 -302c24,0 47,-7 70,-21 23,-14 41,-33 55,-57l0 -256c-13,-22 -32,-40 -56,-54 -24,-14 -47,-21 -69,-21 -49,0 -87,18 -113,53 -26,36 -39,86 -39,152 0,63 14,113 42,150 28,36 65,54 110,54zm753 11c-44,52 -105,78 -180,78 -76,0 -136,-26 -181,-78 -44,-51 -67,-123 -67,-214 0,-91 23,-163 67,-215 45,-52 105,-78 181,-78 75,0 136,26 180,78 45,51 67,123 67,214 0,91 -22,163 -67,215zm-291 -65c26,36 63,54 111,54 47,0 84,-18 111,-54 26,-36 40,-86 40,-150 0,-64 -14,-114 -40,-150 -27,-36 -64,-55 -111,-55 -48,0 -85,18 -111,54 -27,37 -40,87 -40,152 0,63 13,113 40,149zm859 65c-44,52 -105,78 -180,78 -76,0 -136,-26 -181,-78 -44,-51 -67,-123 -67,-214 0,-91 23,-163 67,-215 45,-52 105,-78 181,-78 75,0 136,26 180,78 45,51 67,123 67,214 0,91 -22,163 -67,215zm-291 -65c26,36 63,54 111,54 47,0 84,-18 111,-54 26,-36 40,-86 40,-150 0,-64 -14,-114 -40,-150 -27,-36 -64,-55 -111,-55 -48,0 -85,18 -111,54 -27,37 -40,87 -40,152 0,63 13,113 40,149zm662 143c-71,0 -127,-26 -168,-79 -42,-52 -63,-124 -63,-214 0,-91 21,-163 63,-214 42,-52 98,-78 168,-78 55,0 102,17 141,52l0 -225 95 -45 0 790 -95 0 0 -44c-36,38 -83,57 -141,57zm13 -89c56,0 98,-25 128,-75l0 -263c-30,-47 -72,-71 -128,-71 -47,0 -84,18 -109,53 -26,36 -38,86 -38,152 0,59 13,108 40,146 26,39 62,58 107,58zm706 76l0 -338c0,-50 -11,-87 -32,-111 -22,-24 -51,-36 -88,-36 -86,0 -129,48 -129,145l0 340 -95 0 0 -559 95 0 0 57c34,-47 82,-70 144,-70 66,0 116,20 149,59 34,40 51,104 51,191l0 322 -95 0zm445 13c-76,0 -137,-27 -181,-82 -45,-54 -68,-124 -68,-211 0,-91 23,-163 68,-214 45,-52 105,-78 181,-78 67,0 122,22 165,67 44,45 65,111 65,199 0,20 -1,41 -3,63l-378 0c3,51 19,92 47,123 28,31 63,47 106,47 46,0 86,-17 120,-51l58 65c-48,48 -108,72 -180,72zm-152 -337l286 0c-1,-57 -14,-99 -41,-125 -27,-26 -58,-39 -93,-39 -43,0 -79,14 -107,41 -27,27 -43,68 -45,123zm647 337c-40,0 -78,-9 -114,-26 -36,-17 -65,-40 -88,-68l68 -58c41,44 87,67 137,67 31,0 56,-6 75,-18 19,-12 28,-30 28,-53 0,-18 -7,-34 -20,-48 -14,-14 -28,-25 -43,-32 -15,-7 -36,-16 -65,-27 -56,-21 -99,-44 -129,-71 -29,-26 -43,-60 -43,-103 0,-46 17,-82 53,-108 35,-27 80,-40 135,-40 78,0 140,28 188,84l-66 55c-34,-36 -75,-54 -123,-54 -29,0 -51,6 -68,17 -17,11 -25,26 -25,46 0,10 2,20 8,30 5,9 15,17 29,25 15,8 26,14 34,18 9,4 24,11 47,19 59,22 104,46 135,73 31,27 46,65 46,113 0,50 -18,89 -53,117 -36,28 -84,42 -146,42zm471 0c-40,0 -78,-9 -114,-26 -36,-17 -66,-40 -88,-68l67 -58c42,44 88,67 137,67 32,0 57,-6 76,-18 19,-12 28,-30 28,-53 0,-18 -7,-34 -21,-48 -14,-14 -28,-25 -42,-32 -15,-7 -36,-16 -65,-27 -57,-21 -100,-44 -129,-71 -29,-26 -44,-60 -44,-103 0,-46 18,-82 53,-108 36,-27 81,-40 135,-40 78,0 141,28 189,84l-66 55c-34,-36 -76,-54 -124,-54 -28,0 -51,6 -67,17 -17,11 -26,26 -26,46 0,10 3,20 9,30 5,9 15,17 29,25 14,8 26,14 34,18 8,4 24,11 46,19 60,22 105,46 136,73 31,27 46,65 46,113 0,50 -18,89 -54,117 -35,28 -84,42 -145,42z"/>
  </g>
  <rect class="fil1" width="17500" height="5500"/>
  <path class="fil0" d="M15697 699c-131,0 -243,47 -336,142 -93,95 -140,208 -140,341 0,132 47,246 140,340 93,94 205,141 336,141 130,0 241,-47 333,-141 92,-94 138,-208 138,-340 0,-133 -46,-246 -138,-341 -92,-95 -203,-142 -333,-142zm0 855c-102,0 -188,-36 -257,-108 -69,-72 -104,-160 -104,-266 0,-106 35,-194 104,-265 69,-72 155,-107 257,-107 100,0 186,35 256,107 70,71 105,159 105,265 0,106 -35,194 -105,266 -70,72 -156,108 -256,108zm191 -449c0,-49 -18,-89 -53,-119 -35,-30 -78,-45 -131,-45l-196 0 0 479 122 0 0 -150 59 0 117 150 135 0 -130 -179c51,-32 77,-77 77,-136zm-258 -57l72 0c18,0 33,6 43,16 11,11 17,26 17,43 0,17 -6,30 -17,40 -10,11 -25,16 -43,16l-72 0 0 -115z"/>
 </g>
</svg>
